<svg xmlns="http://www.w3.org/2000/svg" version="1.1" xmlns:xlink="http://www.w3.org/1999/xlink" width="32" height="32" x="0" y="0" viewBox="0 0 492 492" style="enable-background:new 0 0 512 512" xml:space="preserve" class="hovered-paths"><g><path fill="#8f6e4e" fill-rule="evenodd" d="M329.95 69.1c10.91 0 20.82 4.46 28 11.64s11.64 17.1 11.64 28V423.1c0 21.8-17.84 39.64-39.64 39.64H100.73c-10.91 0-20.82-4.46-28-11.64s-11.64-17.1-11.64-28V108.75c0-10.91 4.46-20.82 11.64-28s17.1-11.64 28-11.64c76.41-.01 152.81-.01 229.22-.01z" clip-rule="evenodd" opacity="1" data-original="#8f6e4e" class=""></path><path fill="#836649" fill-rule="evenodd" d="M147.17 69.1h136.35l7.65 39.1c0 .02.01.03.01.05l2.19 11.19c1.5 7.65-3.52 15.1-11.17 16.59-.72.14-1.46.23-2.19.25-.17.01-.34.01-.52.01H151.21c-7.81 0-14.15-6.34-14.15-14.15 0-1.04.12-2.08.34-3.1z" clip-rule="evenodd" opacity="1" data-original="#836649" class=""></path><path fill="#ffffff" d="M329.95 104.05a4.7 4.7 0 0 1 4.7 4.7V423.1a4.7 4.7 0 0 1-4.7 4.7H100.74a4.7 4.7 0 0 1-4.7-4.7V108.75a4.7 4.7 0 0 1 4.7-4.7v-.02c76.4 0 152.8.02 229.21.02z" opacity="1" data-original="#ffffff" class=""></path><path fill="#f5f5f5" d="M140.34 104.03c50 0 100.01.01 150.01.01l.81 4.15c0 .02.01.03.01.05l2.19 11.19c1.5 7.65-3.52 15.1-11.17 16.59-.72.14-1.46.23-2.19.25-.17.01-.34.01-.52.01H151.21c-7.81 0-14.15-6.34-14.15-14.15 0-1.04.12-2.08.34-3.1z" opacity="1" data-original="#f5f5f5" class=""></path><g fill-rule="evenodd" clip-rule="evenodd"><path fill="#ffc107" d="M215.34 30.74c8.19 0 15.61 3.32 20.98 8.69 4.32 4.32 7.31 9.96 8.32 16.27h22.76c2.37 0 4.33 1.75 4.67 4.03l12.03 61.52a4.718 4.718 0 0 1-4.62 5.62H151.21c-2.6 0-4.72-2.11-4.72-4.72 0-.39.05-.77.14-1.13l12.03-61.51a4.713 4.713 0 0 1 4.62-3.81h22.76c1.01-6.31 4-11.95 8.32-16.27 5.37-5.37 12.79-8.69 20.98-8.69z" opacity="1" data-original="#ffc107" class=""></path><path fill="#ffdb6c" d="m281.91 110.06 2.19 11.19a4.718 4.718 0 0 1-4.62 5.62H151.21c-2.6 0-4.72-2.11-4.72-4.72 0-.39.05-.77.14-1.13l2.14-10.96z" opacity="1" data-original="#ffdb6c" class="hovered-path"></path></g><g fill-rule="evenodd" clip-rule="evenodd"><path fill="#ffc107" d="M406.92 169.11a4.78 4.78 0 0 1 1.76 6.53L289.33 382.36a4.78 4.78 0 0 1-6.53 1.76c-4.67-2.69-33.12-19.1-37.82-21.82-2.29-1.33-3.07-4.26-1.74-6.54L362.6 149.03c1.33-2.29 4.26-3.07 6.54-1.74 3.65 2.11 31.72 18.34 37.78 21.82z" opacity="1" data-original="#ffc107" class=""></path><path fill="#ef5350" d="m402.14 177.4-37.8-21.82c-2.29-1.33-3.07-4.26-1.74-6.54l20.26-35.09.01-.01c2.56-4.43 6.69-7.41 11.29-8.65 4.6-1.23 9.67-.71 14.11 1.85v.01l13.62 7.87c.09.05.18.09.27.14 4.43 2.56 7.41 6.69 8.65 11.29 1.2 4.48.73 9.43-1.68 13.79-.05.11-.11.21-.17.32l-20.26 35.1a4.822 4.822 0 0 1-6.56 1.74z" opacity="1" data-original="#ef5350"></path><path fill="#c4ced3" d="m402.14 177.4-37.8-21.82c-2.29-1.33-3.07-4.26-1.74-6.54l15.97-27.67 46.09 26.61-15.98 27.68c-1.32 2.28-4.25 3.06-6.54 1.74z" opacity="1" data-original="#c4ced3" class=""></path><path fill="#4d4d4d" d="M128.79 156.08a4.801 4.801 0 0 1 0-9.6h13.2a4.801 4.801 0 0 1 0 9.6zM164.49 156.08a4.801 4.801 0 0 1 0-9.6h137.4a4.801 4.801 0 0 1 0 9.6zM128.79 190.88a4.801 4.801 0 0 1 0-9.6h13.2a4.801 4.801 0 0 1 0 9.6zM164.49 190.88a4.801 4.801 0 0 1 0-9.6h137.4a4.801 4.801 0 0 1 0 9.6zM128.79 225.68a4.801 4.801 0 0 1 0-9.6h13.2a4.801 4.801 0 0 1 0 9.6zM164.49 225.68a4.801 4.801 0 0 1 0-9.6h137.4a4.801 4.801 0 0 1 0 9.6zM128.79 260.48a4.801 4.801 0 0 1 0-9.6h13.2a4.801 4.801 0 0 1 0 9.6zM164.49 260.48a4.801 4.801 0 0 1 0-9.6h115.45a4.801 4.801 0 0 1 0 9.6zM128.79 295.28a4.801 4.801 0 0 1 0-9.6h13.2a4.801 4.801 0 0 1 0 9.6zM164.49 295.28a4.801 4.801 0 0 1 0-9.6h91.75a4.801 4.801 0 0 1 0 9.6zM128.79 330.08a4.801 4.801 0 0 1 0-9.6h13.2a4.801 4.801 0 0 1 0 9.6zM164.49 330.08a4.801 4.801 0 0 1 0-9.6h68.7a4.801 4.801 0 0 1 0 9.6zM128.79 364.88a4.801 4.801 0 0 1 0-9.6h13.2a4.801 4.801 0 0 1 0 9.6zM164.49 364.88a4.801 4.801 0 0 1 0-9.6h58.15a4.801 4.801 0 0 1 0 9.6zM128.79 399.68a4.801 4.801 0 0 1 0-9.6h13.2a4.801 4.801 0 0 1 0 9.6zM164.49 399.68a4.801 4.801 0 0 1 0-9.6h54.85a4.801 4.801 0 0 1 0 9.6z" opacity="1" data-original="#4d4d4d" class=""></path><path fill="#db9e82" d="m266.78 398.69-20.79 14.55a4.797 4.797 0 0 1-7.87-4.08l2.24-25.7 2.24-25.7h.01c.06-.68.26-1.36.63-1.99 1.33-2.29 4.26-3.07 6.54-1.74l18.9 10.91 18.9 10.91v.01c.59.34 1.11.81 1.52 1.4 1.51 2.16.98 5.14-1.18 6.66z" opacity="1" data-original="#db9e82" class=""></path></g></g></svg>