<svg xmlns="http://www.w3.org/2000/svg" version="1.1" xmlnsXlink="http://www.w3.org/1999/xlink" width={512} height={512} x={0} y={0} viewBox="0 0 1707 1707" style={{enableBackground: 'new 0 0 512 512'}} xmlSpace="preserve" fillRule="evenodd" className><g><path fill="#ffa721" d="M771 218h119v91c0 62 63 97 115 74l10-5 2-2 4-3 5-4 1-1c10-10 21-24 23-39 5-36 3-74 3-111h106c55 0 99 45 99 99v1245c0 54-44 99-99 99H221c-55 0-100-45-100-99V317c0-54 45-99 100-99h106v91l3 22 5 13 1 2 1 2 1 1 1 2 3 5 1 2 2 1 1 2 1 1 1 2 2 1 1 1c9 9 21 19 34 21 39 6 16 4 50-1 16-2 55-33 55-77v-91h119v91l3 22 5 13 1 4 1 1 5 7 2 3 2 3 2 2 1 1c13 13 30 22 49 25 47 6 91-31 91-81zM725 81v228c0 44-71 49-71 0V81c0-46 71-46 71 0zm579 1481V317c0-80-65-145-145-145h-106V81c0-44-37-81-82-81s-81 37-81 81v91H771V81c0-44-36-81-81-81s-81 37-81 81v91H490V81c0-44-36-81-81-81s-82 37-82 81v91H221c-80 0-145 65-145 145v1245c0 80 65 145 145 145h938c80 0 145-65 145-145zM444 81v228c0 37-59 52-70 9l-1-6c-2-70 0-159 0-231 0-46 71-46 71 0z" opacity={1} data-original="#ffa721" /><path fill="#000002" d="M1077 1476H303c-30 0-30-46 0-46h774c30 0 30 46 0 46zm276-100v-2c-4-12-1-1081-1-1280 0-50 40-90 89-90h100c50 0 90 40 90 90v1274l-2 8-116 316c-7 19-36 19-43 0zm232-31V380h-187v965zM1398 334h187V94c0-25-19-44-44-44h-100c-24 0-43 19-43 44zm10 1057 83 227 84-227zm83-240c-12 0-22-10-22-23V597c0-30 45-30 45 0v531c0 13-10 23-23 23zm-332 556H221c-80 0-145-65-145-145V317c0-80 65-145 145-145h106V81c0-44 37-81 82-81s81 37 81 81v91h119V81c0-44 36-81 81-81s81 37 81 81v91h119V81c0-44 36-81 81-81s82 37 82 81v91h106c80 0 145 65 145 145v1245c0 80-65 145-145 145zM374 318c11 43 70 28 70-9V81c0-46-71-46-71 0 0 72-2 161 0 231zm280-123v114c0 49 71 44 71 0V81c0-46-71-46-71 0zm283 123v2zm2 6c17 36 68 20 68-15V81c0-46-71-46-71 0 0 72-2 161 0 231l1 6zM221 218c-55 0-100 45-100 99v1245c0 54 45 99 100 99h938c55 0 99-45 99-99V317c0-54-44-99-99-99h-106c0 37 2 75-3 111-2 15-13 29-23 39l-1 1-5 4-4 3-2 2-10 5c-52 23-115-12-115-74v-91H771v91c0 50-44 87-91 81-19-3-36-12-49-25l-1-1-2-2-2-3-2-3-5-7-1-1-1-4-5-13-3-22v-91H490v91c0 44-39 75-55 77-34 5-11 7-50 1-13-2-25-12-34-21l-1-1-2-1-1-2-1-1-1-2-2-1-1-2-3-5-1-2-1-1-1-2-1-2-5-13-3-22v-91zm212 117s0-1 1-1zm8-12c1-1 1-1 1-2zm281 1s0-1 1-1zm1-2c0-1 0-1 1-2zm215 1 1 1zm66 0c0-1 0-1 1-2zm1-2v-1zm72 300H303c-30 0-30-46 0-46h774c30 0 30 46 0 46zm0 214H303c-30 0-30-46 0-46h774c30 0 30 46 0 46zm0 214H303c-30 0-30-46 0-46h774c30 0 30 46 0 46zm0 213H303c-30 0-30-46 0-46h774c30 0 30 46 0 46z" opacity={1} data-original="#000002" className /><path fill="#ffa721" d="M374 318c11 43 70 28 70-9V81c0-46-71-46-71 0 0 72-2 161 0 231zM654 195v114c0 49 71 44 71 0V81c0-46-71-46-71 0z" opacity={1} data-original="#ffa721" /><path fill="#ffe4af" d="M1005 383c-52 23-115-12-115-74v-91H771v91c0 50-44 87-91 81-19-3-36-12-49-25l-1-1-2-2-2-3-2-3-5-7-1-1-1-4-5-13-3-22v-91H490v91c0 44-39 75-55 77-34 5-11 7-50 1-13-2-25-12-34-21l-1-1-2-1-1-2-1-1-1-2-2-1-1-2-3-5-1-2-1-1-1-2-1-2-5-13-3-22v-91H221c-55 0-100 45-100 99v1245c0 54 45 99 100 99h938c55 0 99-45 99-99V317c0-54-44-99-99-99h-106c0 37 2 75-3 111-2 15-13 29-23 39l-1 1-5 4-4 3-2 2zM303 575h774c30 0 30 46 0 46H303c-30 0-30-46 0-46zm0 214h774c30 0 30 46 0 46H303c-30 0-30-46 0-46zm0 214h774c30 0 30 46 0 46H303c-30 0-30-46 0-46zm0 213h774c30 0 30 46 0 46H303c-30 0-30-46 0-46zm0 214h774c30 0 30 46 0 46H303c-30 0-30-46 0-46z" opacity={1} data-original="#ffe4af" className /><path fill="#ff3131" d="M1398 94v240h187V94c0-25-19-44-44-44h-100c-24 0-43 19-43 44z" opacity={1} data-original="#ff3131" className /><path fill="#ffa721" d="M1585 380h-187v965h187zm-116 217c0-30 45-30 45 0v531c0 13-10 23-23 23-12 0-22-10-22-23z" opacity={1} data-original="#ffa721" /><path fill="#ffe4af" d="M1575 1391h-167l83 227z" opacity={1} data-original="#ffe4af" className /></g></svg>
